<?xml version="1.0"?>
<svg xmlns="http://www.w3.org/2000/svg" id="Capa_1" enable-background="new 0 0 512 512" height="512" viewBox="0 0 512 512" width="512"><g><g><path d="m271.805 403.225 58.446-58.446-45.675-45.674c-18.068 22.137-53.089 26.882-75.823 4.148-22.672-22.671-17.972-57.732 4.15-75.821l-45.683-45.683-58.792 58.792c30.262 5.316 43.976 43.683 21.079 66.581-22.782 22.782-61.249 9.261-66.588-21.071l-58.129 58.128c-6.387 6.387-6.387 16.743 0 23.13l46.818 46.818c-29.677 5.963-42.69 43.861-20.139 66.411 22.658 22.658 60.471 9.469 66.403-20.147l46.818 46.818c6.387 6.387 16.743 6.387 23.13 0l57.781-57.782c5.909 29.731 43.861 42.782 66.427 20.216 22.683-22.68 9.447-60.539-20.223-66.418z" data-original="#000000" class="active-path" style="fill:#FFFFFF" data-old_color="#000000"/><path d="m507.21 144.691-47.334-47.334c30.586-5.1 44.307-43.784 21.433-66.658-22.99-22.99-61.573-9.076-66.65 21.441l-47.35-47.35c-6.387-6.387-16.743-6.387-23.13 0l-55.021 55.021c-4.177-31.518-43.653-45.972-66.857-22.768-23.319 23.319-8.665 62.688 22.776 66.849l-56.644 56.644 60.498 60.498c8.522 8.522 3.989 23.146-7.858 25.353-15.69 2.924-23.374 23.387-11.106 35.654 12.329 12.329 32.725 4.581 35.647-11.111 2.205-11.851 16.832-16.383 25.353-7.86l60.498 60.498 57.902-57.902c-33.352-2.134-49.577-43.136-25.578-67.135 23.883-23.883 65.009-7.874 67.135 25.578l56.287-56.287c6.386-6.388 6.386-16.744-.001-23.131z" data-original="#000000" class="active-path" style="fill:#FFFFFF" data-old_color="#000000"/></g></g> </svg>
